HIERARCHY
ROOT SpineBase
{
  OFFSET 0.000000 0.000000 0.000000
  CHANNELS 6 Xposition Yposition Zposition Zrotation Xrotation Yrotation
  JOINT SpineMid
  {
    OFFSET 0.000000 31.131244 0.000000
    CHANNELS 3 Zrotation Xrotation Yrotation
    JOINT SpineShoulder
    {
      OFFSET 0.294930 23.163439 -0.820386
      CHANNELS 3 Zrotation Xrotation Yrotation
      JOINT Neck
      {
        OFFSET 0.156789 7.680628 -0.582812
        CHANNELS 3 Zrotation Xrotation Yrotation
        JOINT Head
        {
          OFFSET -2.714128 13.507878 1.646447
          CHANNELS 3 Zrotation Xrotation Yrotation
          End Site
          {
            OFFSET 0 0 0
          }
        }
      }
      JOINT ShoulderLeft
      {
        OFFSET -15.081614 -2.817706 8.421411
        CHANNELS 3 Zrotation Xrotation Yrotation
        JOINT ElbowLeft
        {
          OFFSET -6.137900 -27.052015 2.805348
          CHANNELS 3 Zrotation Xrotation Yrotation
          JOINT WristLeft
          {
            OFFSET -3.096779 -19.042215 -10.100373
            CHANNELS 3 Zrotation Xrotation Yrotation
            JOINT HandLeft
            {
              OFFSET -1.347317 -6.196551 -2.490592
              CHANNELS 3 Zrotation Xrotation Yrotation
              JOINT HandTipLeft
              {
                OFFSET -1.081183 -8.558874 -1.231880
                CHANNELS 3 Zrotation Xrotation Yrotation
                End Site
                {
                  OFFSET 0 0 0
                }
              }
              JOINT ThumbLeft
              {
                OFFSET -2.064943 1.344626 -2.914053
                CHANNELS 3 Zrotation Xrotation Yrotation
                End Site
                {
                  OFFSET 0 0 0
                }
              }
            }
          }
        }
      }
      JOINT ShoulderRight
      {
        OFFSET 13.447244 -3.213793 -7.756880
        CHANNELS 3 Zrotation Xrotation Yrotation
        JOINT ElbowRight
        {
          OFFSET 7.997415 -26.971406 -4.906313
          CHANNELS 3 Zrotation Xrotation Yrotation
          JOINT WristRight
          {
            OFFSET -0.635433 -19.668784 -9.470256
            CHANNELS 3 Zrotation Xrotation Yrotation
            JOINT HandRight
            {
              OFFSET -1.781485 -6.527452 -2.596754
              CHANNELS 3 Zrotation Xrotation Yrotation
              JOINT HandTipRight
              {
                OFFSET -0.743846 -7.820112 -1.741754
                CHANNELS 3 Zrotation Xrotation Yrotation
                End Site
                {
                  OFFSET 0 0 0
                }
              }
              JOINT ThumbRight
              {
                OFFSET -3.655086 -1.897319 0.930864
                CHANNELS 3 Zrotation Xrotation Yrotation
                End Site
                {
                  OFFSET 0 0 0
                }
              }
            }
          }
        }
      }
    }
  }
  JOINT HipLeft
  {
    OFFSET -6.727721 0.086091 -0.577155
    CHANNELS 3 Zrotation Xrotation Yrotation
    JOINT KneeLeft
    {
      OFFSET 1.632250 -37.873206 6.111699
      CHANNELS 3 Zrotation Xrotation Yrotation
      JOINT AnkleLeft
      {
        OFFSET 4.639898 -36.600863 11.900166
        CHANNELS 3 Zrotation Xrotation Yrotation
        JOINT FootLeft
        {
          OFFSET -3.367908 -7.762007 -5.363304
          CHANNELS 3 Zrotation Xrotation Yrotation
          End Site
          {
            OFFSET 0 0 0
          }
        }
      }
    }
  }
  JOINT HipRight
  {
    OFFSET 6.972888 1.746903 -6.438849
    CHANNELS 3 Zrotation Xrotation Yrotation
    JOINT KneeRight
    {
      OFFSET 5.704837 -33.208340 -3.034148
      CHANNELS 3 Zrotation Xrotation Yrotation
      JOINT AnkleRight
      {
        OFFSET 3.914239 -41.006533 10.644383
        CHANNELS 3 Zrotation Xrotation Yrotation
        JOINT FootRight
        {
          OFFSET -1.431274 -7.982592 -6.237234
          CHANNELS 3 Zrotation Xrotation Yrotation
          End Site
          {
            OFFSET 0 0 0
          }
        }
      }
    }
  }
}
MOTION
Frames: 8
Frame Time: 0.033333
-12.495774 83.566635 339.287784 -0.000000 0.000000 23.163266 0.000000 0.000000 -23.163266 -0.000000 0.000000 0.000000 -0.000000 0.000000 0.000000 0.000000 0.000000 0.000000 -0.000000 0.000000 0.000000 -0.000000 0.000000 0.000000 -0.000000 0.000000 0.000000 -0.000000 0.000000 0.000000 0.000000 0.000000 0.000000 0.000000 0.000000 0.000000 -0.000000 0.000000 0.000000 -0.000000 0.000000 0.000000 -0.000000 0.000000 0.000000 -0.000000 0.000000 0.000000 0.000000 0.000000 0.000000 0.000000 0.000000 0.000000 0.000000 0.000000 -23.163266 -0.000000 0.000000 0.000000 -0.000000 0.000000 0.000000 0.000000 0.000000 0.000000 0.000000 0.000000 -23.163266 -0.000000 0.000000 0.000000 -0.000000 0.000000 0.000000 0.000000 0.000000 0.000000
-12.639139 83.567283 339.124279 -0.801023 -0.063199 23.216431 0.761075 -0.257683 -23.215161 -0.000000 0.000000 0.000000 -0.000000 0.000000 0.000000 0.000000 0.000000 0.000000 0.574256 0.591784 -0.077816 0.948219 -2.205684 -0.439157 4.689346 -2.326119 -1.054684 -4.087598 2.648773 1.588039 0.000000 0.000000 0.000000 0.000000 0.000000 0.000000 -0.000000 0.000000 0.000000 -0.000000 0.000000 0.000000 2.014687 -2.468750 -0.085413 -2.042347 1.653661 0.255767 0.000000 0.000000 0.000000 0.000000 0.000000 0.000000 0.761075 -0.257683 -23.215161 -0.000000 0.000000 0.000000 0.398617 -1.652666 0.452644 0.000000 0.000000 0.000000 0.761075 -0.257683 -23.215161 -0.000000 0.000000 0.000000 0.513539 1.620431 -0.691984 0.000000 0.000000 0.000000
-12.689284 83.550128 338.944381 -1.473297 -0.130455 23.243492 0.051346 0.109667 -23.295583 0.131126 -0.004446 -0.049391 2.149237 0.242233 0.045513 0.000000 0.000000 0.000000 2.465342 0.888465 0.011499 1.813151 -4.364510 -0.799262 7.637895 -4.049033 -1.531263 -6.941081 5.115394 2.673919 0.000000 0.000000 0.000000 0.000000 0.000000 0.000000 0.614081 0.906810 0.502931 0.716412 -0.896706 -0.390439 3.999536 -4.908659 -0.081922 -4.007751 3.245968 0.580983 0.000000 0.000000 0.000000 0.000000 0.000000 0.000000 1.405221 -0.461536 -23.239510 -0.421322 -0.790111 -0.239630 1.288391 -2.339235 1.030952 0.000000 0.000000 0.000000 1.405221 -0.461536 -23.239510 0.003901 -0.994693 -0.093692 0.779593 3.770245 -1.033097 0.000000 0.000000 0.000000
-12.646209 83.515167 338.748089 -2.017322 -0.201736 23.244559 0.093124 0.137989 -23.315249 0.183373 -0.011239 -0.066142 2.901250 0.393332 0.064455 0.000000 0.000000 0.000000 3.464543 0.895137 0.103581 2.566699 -6.450176 -1.089468 9.339942 -5.385784 -1.624306 -8.862195 7.594127 3.309444 0.000000 0.000000 0.000000 0.000000 0.000000 0.000000 0.798676 1.173583 0.660954 0.991269 -1.130982 -0.505511 5.984657 -7.344275 0.008972 -5.922345 4.804818 0.971238 0.000000 0.000000 0.000000 0.000000 0.000000 0.000000 2.355512 0.305766 -23.188874 -0.625552 -2.110604 -0.397381 1.987042 -3.321892 1.365130 0.000000 0.000000 0.000000 1.933234 -0.610751 -23.237806 -0.083716 -1.418308 -0.157661 0.895201 4.914344 -1.130806 0.000000 0.000000 0.000000
-12.509915 83.462402 338.535404 -2.433728 -0.277027 23.219794 0.145031 0.148813 -23.304410 0.226847 -0.021254 -0.077693 3.439690 0.563721 0.080841 0.000000 0.000000 0.000000 4.312051 0.610762 0.258429 3.183055 -8.426251 -1.323237 10.117490 -6.578890 -1.388341 -10.042654 10.268265 3.522297 0.000000 0.000000 0.000000 0.000000 0.000000 0.000000 0.909420 1.309363 0.751693 1.477941 -2.414499 -0.655482 7.704585 -8.598983 0.122771 -7.811002 6.356382 1.425817 0.000000 0.000000 0.000000 0.000000 0.000000 0.000000 2.645101 0.623522 -23.193405 -0.503296 -2.700947 -0.456658 2.713714 -4.166370 1.574095 0.000000 0.000000 0.000000 2.345876 -0.704892 -23.211246 -0.231670 -1.792509 -0.233972 0.825960 5.592563 -0.944702 0.000000 0.000000 0.000000
-12.280401 83.391832 338.306326 -2.723193 -0.356327 23.169383 0.206808 0.142297 -23.263330 0.261645 -0.034575 -0.084077 3.765521 0.753079 0.095043 0.000000 0.000000 0.000000 5.011587 0.034237 0.480222 3.640095 -10.247778 -1.517741 10.155710 -7.890138 -0.775957 -10.562334 13.328698 3.292466 0.000000 0.000000 0.000000 0.000000 0.000000 0.000000 0.950341 1.311754 0.772932 2.005064 -3.181791 -0.803806 9.385581 -10.247279 0.376559 -9.698135 7.925229 1.947368 0.000000 0.000000 0.000000 0.000000 0.000000 0.000000 2.686400 1.051032 -23.196657 -0.214022 -3.238604 -0.476532 3.463270 -4.865577 1.654600 0.000000 0.000000 0.000000 2.643813 -0.743844 -23.160688 -0.440483 -2.117000 -0.323146 0.571218 5.808024 -0.471325 0.000000 0.000000 0.000000
-11.953179 83.289345 338.034672 -2.907584 -0.475252 23.043184 0.377716 0.083119 -23.139739 0.320070 -0.062957 -0.079297 3.629963 1.156317 0.143365 0.000000 0.000000 0.000000 5.611519 -1.022256 0.836633 4.083425 -12.111237 -1.835293 8.123205 -9.346851 1.016111 -9.428457 17.357979 1.894610 0.000000 0.000000 0.000000 0.000000 0.000000 0.000000 0.848090 1.078090 0.662447 2.700884 -4.006197 -0.956720 11.333557 -12.179685 0.826213 -12.157653 10.666648 2.646645 0.000000 0.000000 0.000000 0.000000 0.000000 0.000000 2.464975 1.670853 -23.156103 0.289449 -3.812935 -0.459724 6.169861 -10.054131 2.786943 0.000000 0.000000 0.000000 2.861628 -0.700866 -23.037739 -0.799015 -2.419901 -0.453125 0.433777 6.099101 0.045136 0.000000 0.000000 0.000000
-11.494350 83.169033 337.730629 -2.943111 -0.579312 22.873743 0.482775 0.023271 -22.969621 0.323768 -0.086695 -0.074910 3.571705 1.524551 0.166129 0.000000 0.000000 0.000000 6.147943 -2.366470 1.274468 4.108007 -13.668565 -2.035539 6.199299 -12.116648 3.363930 -7.423067 21.195426 -0.073245 0.000000 0.000000 0.000000 0.000000 0.000000 0.000000 0.754654 0.847188 0.539420 3.439668 -5.086798 -1.123116 13.315456 -13.842367 1.274805 -13.796263 13.033241 3.098099 0.000000 0.000000 0.000000 0.000000 0.000000 0.000000 1.940531 2.392045 -23.092368 0.959651 -4.257359 -0.394966 3.774882 -4.161182 1.534934 0.000000 0.000000 0.000000 2.936814 -0.610457 -22.872976 -1.181348 -2.665243 -0.585634 -0.244365 5.555123 1.169497 0.000000 0.000000 0.000000
